<svg width="600" height="400" viewBox="0 0 600 400" fill="none" xmlns="http://www.w3.org/2000/svg">
<rect width="600" height="400" fill="#343D46"/>
<path d="M141.48 177C142.76 177 143.8 177.427 144.6 178.28C145.4 179.133 145.8 180.2 145.8 181.48V228.12C145.8 229.507 145.32 230.68 144.36 231.64C143.453 232.547 142.307 233 140.92 233C140.227 233 139.507 232.893 138.76 232.68C138.067 232.413 137.533 232.067 137.16 231.64L105.72 191.72L107.8 190.44V228.52C107.8 229.8 107.373 230.867 106.52 231.72C105.72 232.573 104.653 233 103.32 233C102.04 233 101 232.573 100.2 231.72C99.4 230.867 99 229.8 99 228.52V181.88C99 180.493 99.4533 179.347 100.36 178.44C101.32 177.48 102.493 177 103.88 177C104.627 177 105.4 177.16 106.2 177.48C107 177.747 107.587 178.173 107.96 178.76L138.44 217.64L137.08 218.6V181.48C137.08 180.2 137.48 179.133 138.28 178.28C139.08 177.427 140.147 177 141.48 177ZM209.348 205C209.348 209 208.681 212.733 207.348 216.2C206.015 219.667 204.121 222.733 201.668 225.4C199.268 228.013 196.388 230.067 193.028 231.56C189.721 233.053 186.095 233.8 182.148 233.8C178.201 233.8 174.575 233.053 171.268 231.56C167.961 230.067 165.081 228.013 162.628 225.4C160.228 222.733 158.361 219.667 157.028 216.2C155.695 212.733 155.028 209 155.028 205C155.028 201 155.695 197.267 157.028 193.8C158.361 190.333 160.228 187.293 162.628 184.68C165.081 182.013 167.961 179.933 171.268 178.44C174.575 176.947 178.201 176.2 182.148 176.2C186.095 176.2 189.721 176.947 193.028 178.44C196.388 179.933 199.268 182.013 201.668 184.68C204.121 187.293 206.015 190.333 207.348 193.8C208.681 197.267 209.348 201 209.348 205ZM198.948 205C198.948 201.427 198.228 198.2 196.788 195.32C195.348 192.387 193.375 190.067 190.868 188.36C188.361 186.653 185.455 185.8 182.148 185.8C178.841 185.8 175.935 186.653 173.428 188.36C170.921 190.067 168.948 192.36 167.508 195.24C166.121 198.12 165.428 201.373 165.428 205C165.428 208.573 166.121 211.827 167.508 214.76C168.948 217.64 170.921 219.933 173.428 221.64C175.935 223.347 178.841 224.2 182.148 224.2C185.455 224.2 188.361 223.347 190.868 221.64C193.375 219.933 195.348 217.64 196.788 214.76C198.228 211.827 198.948 208.573 198.948 205ZM264.073 177C266.846 177 269.433 177.8 271.833 179.4C274.286 181 276.26 183.16 277.753 185.88C279.246 188.6 279.993 191.64 279.993 195C279.993 198.307 279.246 201.32 277.753 204.04C276.26 206.76 274.286 208.947 271.833 210.6C269.433 212.2 266.846 213 264.073 213H249.353L250.153 211.56V228.12C250.153 229.507 249.726 230.68 248.873 231.64C248.02 232.547 246.9 233 245.513 233C244.18 233 243.086 232.547 242.233 231.64C241.38 230.68 240.953 229.507 240.953 228.12V181.88C240.953 180.493 241.406 179.347 242.313 178.44C243.273 177.48 244.446 177 245.833 177H264.073ZM264.073 203.88C265.086 203.88 266.073 203.453 267.033 202.6C267.993 201.747 268.793 200.653 269.433 199.32C270.073 197.933 270.393 196.493 270.393 195C270.393 193.453 270.073 192.013 269.433 190.68C268.793 189.347 267.993 188.28 267.033 187.48C266.073 186.627 265.086 186.2 264.073 186.2H249.193L250.153 184.76V205.16L249.273 203.88H264.073ZM294.276 177C295.556 177 296.676 177.48 297.636 178.44C298.65 179.347 299.156 180.493 299.156 181.88V228.12C299.156 229.507 298.65 230.68 297.636 231.64C296.623 232.547 295.45 233 294.116 233C292.623 233 291.423 232.547 290.516 231.64C289.61 230.68 289.156 229.507 289.156 228.12V181.88C289.156 180.493 289.636 179.347 290.596 178.44C291.556 177.48 292.783 177 294.276 177ZM329.716 177C331.21 177 332.41 177.48 333.316 178.44C334.223 179.347 334.676 180.493 334.676 181.88V228.12C334.676 229.507 334.196 230.68 333.236 231.64C332.33 232.547 331.103 233 329.556 233C328.276 233 327.13 232.547 326.116 231.64C325.156 230.68 324.676 229.507 324.676 228.12V181.88C324.676 180.493 325.183 179.347 326.196 178.44C327.21 177.48 328.383 177 329.716 177ZM294.036 200.28H329.716V209.48H294.036V200.28ZM398.176 205C398.176 209 397.51 212.733 396.176 216.2C394.843 219.667 392.95 222.733 390.496 225.4C388.096 228.013 385.216 230.067 381.856 231.56C378.55 233.053 374.923 233.8 370.976 233.8C367.03 233.8 363.403 233.053 360.096 231.56C356.79 230.067 353.91 228.013 351.456 225.4C349.056 222.733 347.19 219.667 345.856 216.2C344.523 212.733 343.856 209 343.856 205C343.856 201 344.523 197.267 345.856 193.8C347.19 190.333 349.056 187.293 351.456 184.68C353.91 182.013 356.79 179.933 360.096 178.44C363.403 176.947 367.03 176.2 370.976 176.2C374.923 176.2 378.55 176.947 381.856 178.44C385.216 179.933 388.096 182.013 390.496 184.68C392.95 187.293 394.843 190.333 396.176 193.8C397.51 197.267 398.176 201 398.176 205ZM387.776 205C387.776 201.427 387.056 198.2 385.616 195.32C384.176 192.387 382.203 190.067 379.696 188.36C377.19 186.653 374.283 185.8 370.976 185.8C367.67 185.8 364.763 186.653 362.256 188.36C359.75 190.067 357.776 192.36 356.336 195.24C354.95 198.12 354.256 201.373 354.256 205C354.256 208.573 354.95 211.827 356.336 214.76C357.776 217.64 359.75 219.933 362.256 221.64C364.763 223.347 367.67 224.2 370.976 224.2C374.283 224.2 377.19 223.347 379.696 221.64C382.203 219.933 384.176 217.64 385.616 214.76C387.056 211.827 387.776 208.573 387.776 205ZM424.757 233C423.264 233 422.037 232.547 421.077 231.64C420.117 230.68 419.637 229.507 419.637 228.12V181.72H430.037V228.12C430.037 229.507 429.53 230.68 428.517 231.64C427.557 232.547 426.304 233 424.757 233ZM407.077 186.2C405.69 186.2 404.517 185.773 403.557 184.92C402.65 184.067 402.197 182.947 402.197 181.56C402.197 180.173 402.65 179.08 403.557 178.28C404.517 177.427 405.69 177 407.077 177H442.597C443.984 177 445.13 177.427 446.037 178.28C446.997 179.133 447.477 180.253 447.477 181.64C447.477 183.027 446.997 184.147 446.037 185C445.13 185.8 443.984 186.2 442.597 186.2H407.077ZM505.833 205C505.833 209 505.166 212.733 503.833 216.2C502.499 219.667 500.606 222.733 498.153 225.4C495.753 228.013 492.873 230.067 489.513 231.56C486.206 233.053 482.579 233.8 478.633 233.8C474.686 233.8 471.059 233.053 467.753 231.56C464.446 230.067 461.566 228.013 459.113 225.4C456.713 222.733 454.846 219.667 453.513 216.2C452.179 212.733 451.513 209 451.513 205C451.513 201 452.179 197.267 453.513 193.8C454.846 190.333 456.713 187.293 459.113 184.68C461.566 182.013 464.446 179.933 467.753 178.44C471.059 176.947 474.686 176.2 478.633 176.2C482.579 176.2 486.206 176.947 489.513 178.44C492.873 179.933 495.753 182.013 498.153 184.68C500.606 187.293 502.499 190.333 503.833 193.8C505.166 197.267 505.833 201 505.833 205ZM495.433 205C495.433 201.427 494.713 198.2 493.273 195.32C491.833 192.387 489.859 190.067 487.353 188.36C484.846 186.653 481.939 185.8 478.633 185.8C475.326 185.8 472.419 186.653 469.913 188.36C467.406 190.067 465.433 192.36 463.993 195.24C462.606 198.12 461.913 201.373 461.913 205C461.913 208.573 462.606 211.827 463.993 214.76C465.433 217.64 467.406 219.933 469.913 221.64C472.419 223.347 475.326 224.2 478.633 224.2C481.939 224.2 484.846 223.347 487.353 221.64C489.859 219.933 491.833 217.64 493.273 214.76C494.713 211.827 495.433 208.573 495.433 205Z" fill="white"/>
</svg>
