<svg width="96" height="24" viewBox="0 0 96 24" fill="none" xmlns="http://www.w3.org/2000/svg">
<path fill-rule="evenodd" clip-rule="evenodd" d="M3.40625 1.25C1.85295 1.25 0.59375 2.5092 0.59375 4.0625V18.125C0.59375 19.6783 1.85295 20.9375 3.40625 20.9375H11.8438C13.3971 20.9375 14.6562 19.6783 14.6562 18.125V4.0625C14.6562 2.5092 13.3971 1.25 11.8438 1.25H3.40625ZM2 4.0625C2 3.28585 2.6296 2.65625 3.40625 2.65625H11.8438C12.6204 2.65625 13.25 3.28585 13.25 4.0625V8H2V4.0625ZM2 9.6875H13.25V18.125C13.25 18.9016 12.6204 19.5312 11.8438 19.5312H3.40625C2.6296 19.5312 2 18.9016 2 18.125V9.6875ZM3.40625 4.625C3.25092 4.625 3.125 4.75092 3.125 4.90625V6.03125C3.125 6.18658 3.25092 6.3125 3.40625 6.3125H4.25C4.40533 6.3125 4.53125 6.18658 4.53125 6.03125V4.90625C4.53125 4.75092 4.40533 4.625 4.25 4.625H3.40625ZM3.125 10.5312C3.125 10.3759 3.25092 10.25 3.40625 10.25H4.25C4.40533 10.25 4.53125 10.3759 4.53125 10.5312V14.75C4.53125 14.9053 4.40533 15.0312 4.25 15.0312H3.40625C3.25092 15.0312 3.125 14.9053 3.125 14.75V10.5312Z" fill="white"/>
<path d="M21.2 17.024C21.2 17.3013 21.0987 17.536 20.896 17.728C20.6933 17.9093 20.4587 18 20.192 18C19.8933 18 19.6533 17.9093 19.472 17.728C19.2907 17.536 19.2 17.3013 19.2 17.024V7.776C19.2 7.49867 19.296 7.26933 19.488 7.088C19.68 6.896 19.9253 6.8 20.224 6.8C20.48 6.8 20.704 6.896 20.896 7.088C21.0987 7.26933 21.2 7.49867 21.2 7.776V17.024ZM27.3983 18C27.0996 18 26.8543 17.9093 26.6623 17.728C26.4703 17.536 26.3743 17.3013 26.3743 17.024V7.744H28.4543V17.024C28.4543 17.3013 28.3529 17.536 28.1503 17.728C27.9583 17.9093 27.7076 18 27.3983 18ZM23.8623 8.64C23.5849 8.64 23.3503 8.55467 23.1583 8.384C22.9769 8.21333 22.8863 7.98933 22.8863 7.712C22.8863 7.43467 22.9769 7.216 23.1583 7.056C23.3503 6.88533 23.5849 6.8 23.8623 6.8H30.9663C31.2436 6.8 31.4729 6.88533 31.6543 7.056C31.8463 7.22667 31.9423 7.45067 31.9423 7.728C31.9423 8.00533 31.8463 8.22933 31.6543 8.4C31.4729 8.56 31.2436 8.64 30.9663 8.64H23.8623ZM34.6459 6.8C34.9019 6.8 35.1259 6.896 35.3179 7.088C35.5205 7.26933 35.6219 7.49867 35.6219 7.776V17.024C35.6219 17.3013 35.5205 17.536 35.3179 17.728C35.1152 17.9093 34.8805 18 34.6139 18C34.3152 18 34.0752 17.9093 33.8939 17.728C33.7125 17.536 33.6219 17.3013 33.6219 17.024V7.776C33.6219 7.49867 33.7179 7.26933 33.9099 7.088C34.1019 6.896 34.3472 6.8 34.6459 6.8ZM41.7339 6.8C42.0325 6.8 42.2725 6.896 42.4539 7.088C42.6352 7.26933 42.7259 7.49867 42.7259 7.776V17.024C42.7259 17.3013 42.6299 17.536 42.4379 17.728C42.2565 17.9093 42.0112 18 41.7019 18C41.4459 18 41.2165 17.9093 41.0139 17.728C40.8219 17.536 40.7259 17.3013 40.7259 17.024V7.776C40.7259 7.49867 40.8272 7.26933 41.0299 7.088C41.2325 6.896 41.4672 6.8 41.7339 6.8ZM34.5979 11.456H41.7339V13.296H34.5979V11.456ZM53.1859 13.728C53.1859 14.6027 52.9885 15.376 52.5939 16.048C52.2099 16.7093 51.6872 17.2267 51.0259 17.6C50.3752 17.9733 49.6445 18.16 48.8339 18.16C48.0232 18.16 47.2872 17.9733 46.6259 17.6C45.9752 17.2267 45.4525 16.7093 45.0579 16.048C44.6739 15.376 44.4819 14.6027 44.4819 13.728C44.4819 12.8533 44.6739 12.0853 45.0579 11.424C45.4525 10.752 45.9752 10.2293 46.6259 9.856C47.2872 9.472 48.0232 9.28 48.8339 9.28C49.6445 9.28 50.3752 9.472 51.0259 9.856C51.6872 10.2293 52.2099 10.752 52.5939 11.424C52.9885 12.0853 53.1859 12.8533 53.1859 13.728ZM51.2659 13.728C51.2659 13.184 51.1539 12.7147 50.9299 12.32C50.7165 11.9147 50.4232 11.6 50.0499 11.376C49.6872 11.152 49.2819 11.04 48.8339 11.04C48.3859 11.04 47.9752 11.152 47.6019 11.376C47.2392 11.6 46.9459 11.9147 46.7219 12.32C46.5085 12.7147 46.4019 13.184 46.4019 13.728C46.4019 14.2613 46.5085 14.7307 46.7219 15.136C46.9459 15.5307 47.2392 15.84 47.6019 16.064C47.9752 16.288 48.3859 16.4 48.8339 16.4C49.2819 16.4 49.6872 16.288 50.0499 16.064C50.4232 15.84 50.7165 15.5307 50.9299 15.136C51.1539 14.7307 51.2659 14.2613 51.2659 13.728ZM56.87 17.024C56.87 17.3013 56.774 17.536 56.582 17.728C56.4007 17.9093 56.1713 18 55.894 18C55.6273 18 55.4033 17.9093 55.222 17.728C55.0407 17.536 54.95 17.3013 54.95 17.024V7.136C54.95 6.85867 55.0407 6.62933 55.222 6.448C55.414 6.256 55.6487 6.16 55.926 6.16C56.2033 6.16 56.4273 6.256 56.598 6.448C56.7793 6.62933 56.87 6.85867 56.87 7.136V17.024ZM67.1703 13.728C67.1703 14.6027 66.9729 15.376 66.5783 16.048C66.1943 16.7093 65.6716 17.2267 65.0103 17.6C64.3596 17.9733 63.6289 18.16 62.8183 18.16C62.0076 18.16 61.2716 17.9733 60.6103 17.6C59.9596 17.2267 59.4369 16.7093 59.0423 16.048C58.6583 15.376 58.4663 14.6027 58.4663 13.728C58.4663 12.8533 58.6583 12.0853 59.0423 11.424C59.4369 10.752 59.9596 10.2293 60.6103 9.856C61.2716 9.472 62.0076 9.28 62.8183 9.28C63.6289 9.28 64.3596 9.472 65.0103 9.856C65.6716 10.2293 66.1943 10.752 66.5783 11.424C66.9729 12.0853 67.1703 12.8533 67.1703 13.728ZM65.2503 13.728C65.2503 13.184 65.1383 12.7147 64.9143 12.32C64.7009 11.9147 64.4076 11.6 64.0343 11.376C63.6716 11.152 63.2663 11.04 62.8183 11.04C62.3703 11.04 61.9596 11.152 61.5863 11.376C61.2236 11.6 60.9303 11.9147 60.7063 12.32C60.4929 12.7147 60.3863 13.184 60.3863 13.728C60.3863 14.2613 60.4929 14.7307 60.7063 15.136C60.9303 15.5307 61.2236 15.84 61.5863 16.064C61.9596 16.288 62.3703 16.4 62.8183 16.4C63.2663 16.4 63.6716 16.288 64.0343 16.064C64.4076 15.84 64.7009 15.5307 64.9143 15.136C65.1383 14.7307 65.2503 14.2613 65.2503 13.728ZM75.7024 6.16C75.9797 6.16 76.209 6.25067 76.3904 6.432C76.5717 6.61333 76.6624 6.848 76.6624 7.136V17.024C76.6624 17.3013 76.5717 17.536 76.3904 17.728C76.209 17.9093 75.9797 18 75.7024 18C75.425 18 75.1957 17.9093 75.0144 17.728C74.833 17.536 74.7424 17.3013 74.7424 17.024V16.24L75.0944 16.384C75.0944 16.5227 75.0197 16.6933 74.8704 16.896C74.721 17.088 74.5184 17.28 74.2624 17.472C74.0064 17.664 73.7024 17.8293 73.3504 17.968C73.009 18.096 72.6357 18.16 72.2304 18.16C71.4944 18.16 70.8277 17.9733 70.2304 17.6C69.633 17.216 69.1584 16.6933 68.8064 16.032C68.465 15.36 68.2944 14.592 68.2944 13.728C68.2944 12.8533 68.465 12.0853 68.8064 11.424C69.1584 10.752 69.6277 10.2293 70.2144 9.856C70.801 9.472 71.4517 9.28 72.1664 9.28C72.625 9.28 73.0464 9.34933 73.4304 9.488C73.8144 9.62667 74.145 9.80267 74.4224 10.016C74.7104 10.2293 74.929 10.448 75.0784 10.672C75.2384 10.8853 75.3184 11.0667 75.3184 11.216L74.7424 11.424V7.136C74.7424 6.85867 74.833 6.62933 75.0144 6.448C75.1957 6.256 75.425 6.16 75.7024 6.16ZM72.4704 16.4C72.9397 16.4 73.3504 16.2827 73.7024 16.048C74.0544 15.8133 74.3264 15.4933 74.5184 15.088C74.721 14.6827 74.8224 14.2293 74.8224 13.728C74.8224 13.216 74.721 12.7573 74.5184 12.352C74.3264 11.9467 74.0544 11.6267 73.7024 11.392C73.3504 11.1573 72.9397 11.04 72.4704 11.04C72.0117 11.04 71.6064 11.1573 71.2544 11.392C70.9024 11.6267 70.625 11.9467 70.4224 12.352C70.2304 12.7573 70.1344 13.216 70.1344 13.728C70.1344 14.2293 70.2304 14.6827 70.4224 15.088C70.625 15.4933 70.9024 15.8133 71.2544 16.048C71.6064 16.2827 72.0117 16.4 72.4704 16.4ZM86.9671 13.728C86.9671 14.6027 86.7698 15.376 86.3751 16.048C85.9911 16.7093 85.4685 17.2267 84.8071 17.6C84.1565 17.9733 83.4258 18.16 82.6151 18.16C81.8045 18.16 81.0685 17.9733 80.4071 17.6C79.7565 17.2267 79.2338 16.7093 78.8391 16.048C78.4551 15.376 78.2631 14.6027 78.2631 13.728C78.2631 12.8533 78.4551 12.0853 78.8391 11.424C79.2338 10.752 79.7565 10.2293 80.4071 9.856C81.0685 9.472 81.8045 9.28 82.6151 9.28C83.4258 9.28 84.1565 9.472 84.8071 9.856C85.4685 10.2293 85.9911 10.752 86.3751 11.424C86.7698 12.0853 86.9671 12.8533 86.9671 13.728ZM85.0471 13.728C85.0471 13.184 84.9351 12.7147 84.7111 12.32C84.4978 11.9147 84.2045 11.6 83.8311 11.376C83.4685 11.152 83.0631 11.04 82.6151 11.04C82.1671 11.04 81.7565 11.152 81.3831 11.376C81.0205 11.6 80.7271 11.9147 80.5031 12.32C80.2898 12.7147 80.1831 13.184 80.1831 13.728C80.1831 14.2613 80.2898 14.7307 80.5031 15.136C80.7271 15.5307 81.0205 15.84 81.3831 16.064C81.7565 16.288 82.1671 16.4 82.6151 16.4C83.0631 16.4 83.4685 16.288 83.8311 16.064C84.2045 15.84 84.4978 15.5307 84.7111 15.136C84.9351 14.7307 85.0471 14.2613 85.0471 13.728ZM88.0753 16.672C87.9686 16.5227 87.9206 16.3307 87.9313 16.096C87.9419 15.8613 88.0806 15.6587 88.3473 15.488C88.5179 15.3813 88.6993 15.3387 88.8913 15.36C89.0833 15.3707 89.2699 15.4667 89.4513 15.648C89.7606 15.9573 90.0859 16.1973 90.4273 16.368C90.7686 16.5387 91.1953 16.624 91.7073 16.624C91.8673 16.6133 92.0433 16.592 92.2352 16.56C92.4273 16.5173 92.5926 16.432 92.7313 16.304C92.8806 16.1653 92.9553 15.9573 92.9553 15.68C92.9553 15.4453 92.8753 15.2587 92.7153 15.12C92.5553 14.9813 92.3419 14.864 92.0753 14.768C91.8193 14.672 91.5313 14.5813 91.2113 14.496C90.8806 14.4 90.5393 14.2933 90.1873 14.176C89.8459 14.0587 89.5313 13.9093 89.2433 13.728C88.9553 13.536 88.7206 13.2853 88.5393 12.976C88.3579 12.6667 88.2673 12.2773 88.2673 11.808C88.2673 11.2747 88.4166 10.8213 88.7153 10.448C89.0139 10.0747 89.3979 9.78667 89.8673 9.584C90.3473 9.38133 90.8486 9.28 91.3713 9.28C91.7019 9.28 92.0486 9.32267 92.4113 9.408C92.7739 9.48267 93.1206 9.61067 93.4513 9.792C93.7819 9.96267 94.0593 10.192 94.2833 10.48C94.4006 10.64 94.4699 10.832 94.4913 11.056C94.5126 11.28 94.4113 11.4827 94.1873 11.664C94.0273 11.792 93.8406 11.8507 93.6273 11.84C93.4139 11.8187 93.2379 11.744 93.0993 11.616C92.9179 11.3813 92.6726 11.1947 92.3633 11.056C92.0646 10.9173 91.7179 10.848 91.3233 10.848C91.1633 10.848 90.9873 10.8693 90.7953 10.912C90.6139 10.944 90.4539 11.024 90.3153 11.152C90.1766 11.2693 90.1073 11.4613 90.1073 11.728C90.1073 11.9733 90.1873 12.1707 90.3473 12.32C90.5073 12.4587 90.7206 12.576 90.9873 12.672C91.2646 12.7573 91.5579 12.8427 91.8673 12.928C92.1873 13.0133 92.5126 13.1147 92.8433 13.232C93.1739 13.3493 93.4779 13.504 93.7553 13.696C94.0326 13.888 94.2566 14.1387 94.4273 14.448C94.5979 14.7467 94.6833 15.1307 94.6833 15.6C94.6833 16.144 94.5233 16.608 94.2033 16.992C93.8833 17.376 93.4833 17.6693 93.0033 17.872C92.5233 18.064 92.0326 18.16 91.5312 18.16C90.9019 18.16 90.2726 18.0533 89.6432 17.84C89.0139 17.616 88.4913 17.2267 88.0753 16.672Z" fill="white"/>
</svg>
