<svg width="102" height="24" viewBox="0 0 102 24" fill="none" xmlns="http://www.w3.org/2000/svg">
<path fill-rule="evenodd" clip-rule="evenodd" d="M8.40625 1.25C6.85295 1.25 5.59375 2.5092 5.59375 4.0625V18.125C5.59375 19.6783 6.85295 20.9375 8.40625 20.9375H16.8438C18.3971 20.9375 19.6562 19.6783 19.6562 18.125V4.0625C19.6562 2.5092 18.3971 1.25 16.8438 1.25H8.40625ZM7 4.0625C7 3.28585 7.6296 2.65625 8.40625 2.65625H16.8438C17.6204 2.65625 18.25 3.28585 18.25 4.0625V8H7V4.0625ZM7 9.6875H18.25V18.125C18.25 18.9016 17.6204 19.5312 16.8438 19.5312H8.40625C7.6296 19.5312 7 18.9016 7 18.125V9.6875ZM8.40625 4.625C8.25092 4.625 8.125 4.75092 8.125 4.90625V6.03125C8.125 6.18658 8.25092 6.3125 8.40625 6.3125H9.25C9.40533 6.3125 9.53125 6.18658 9.53125 6.03125V4.90625C9.53125 4.75092 9.40533 4.625 9.25 4.625H8.40625ZM8.125 10.5312C8.125 10.3759 8.25092 10.25 8.40625 10.25H9.25C9.40533 10.25 9.53125 10.3759 9.53125 10.5312V14.75C9.53125 14.9053 9.40533 15.0312 9.25 15.0312H8.40625C8.25092 15.0312 8.125 14.9053 8.125 14.75V10.5312Z" fill="black"/>
<path d="M27.2 17.024C27.2 17.3013 27.0987 17.536 26.896 17.728C26.6933 17.9093 26.4587 18 26.192 18C25.8933 18 25.6533 17.9093 25.472 17.728C25.2907 17.536 25.2 17.3013 25.2 17.024V7.776C25.2 7.49867 25.296 7.26933 25.488 7.088C25.68 6.896 25.9253 6.8 26.224 6.8C26.48 6.8 26.704 6.896 26.896 7.088C27.0987 7.26933 27.2 7.49867 27.2 7.776V17.024ZM33.3983 18C33.0996 18 32.8543 17.9093 32.6623 17.728C32.4703 17.536 32.3743 17.3013 32.3743 17.024V7.744H34.4543V17.024C34.4543 17.3013 34.3529 17.536 34.1503 17.728C33.9583 17.9093 33.7076 18 33.3983 18ZM29.8623 8.64C29.5849 8.64 29.3503 8.55467 29.1583 8.384C28.9769 8.21333 28.8863 7.98933 28.8863 7.712C28.8863 7.43467 28.9769 7.216 29.1583 7.056C29.3503 6.88533 29.5849 6.8 29.8623 6.8H36.9663C37.2436 6.8 37.4729 6.88533 37.6543 7.056C37.8463 7.22667 37.9423 7.45067 37.9423 7.728C37.9423 8.00533 37.8463 8.22933 37.6543 8.4C37.4729 8.56 37.2436 8.64 36.9663 8.64H29.8623ZM40.6459 6.8C40.9019 6.8 41.1259 6.896 41.3179 7.088C41.5205 7.26933 41.6219 7.49867 41.6219 7.776V17.024C41.6219 17.3013 41.5205 17.536 41.3179 17.728C41.1152 17.9093 40.8805 18 40.6139 18C40.3152 18 40.0752 17.9093 39.8939 17.728C39.7125 17.536 39.6219 17.3013 39.6219 17.024V7.776C39.6219 7.49867 39.7179 7.26933 39.9099 7.088C40.1019 6.896 40.3472 6.8 40.6459 6.8ZM47.7339 6.8C48.0325 6.8 48.2725 6.896 48.4539 7.088C48.6352 7.26933 48.7259 7.49867 48.7259 7.776V17.024C48.7259 17.3013 48.6299 17.536 48.4379 17.728C48.2565 17.9093 48.0112 18 47.7019 18C47.4459 18 47.2165 17.9093 47.0139 17.728C46.8219 17.536 46.7259 17.3013 46.7259 17.024V7.776C46.7259 7.49867 46.8272 7.26933 47.0299 7.088C47.2325 6.896 47.4672 6.8 47.7339 6.8ZM40.5979 11.456H47.7339V13.296H40.5979V11.456ZM59.1859 13.728C59.1859 14.6027 58.9885 15.376 58.5939 16.048C58.2099 16.7093 57.6872 17.2267 57.0259 17.6C56.3752 17.9733 55.6445 18.16 54.8339 18.16C54.0232 18.16 53.2872 17.9733 52.6259 17.6C51.9752 17.2267 51.4525 16.7093 51.0579 16.048C50.6739 15.376 50.4819 14.6027 50.4819 13.728C50.4819 12.8533 50.6739 12.0853 51.0579 11.424C51.4525 10.752 51.9752 10.2293 52.6259 9.856C53.2872 9.472 54.0232 9.28 54.8339 9.28C55.6445 9.28 56.3752 9.472 57.0259 9.856C57.6872 10.2293 58.2099 10.752 58.5939 11.424C58.9885 12.0853 59.1859 12.8533 59.1859 13.728ZM57.2659 13.728C57.2659 13.184 57.1539 12.7147 56.9299 12.32C56.7165 11.9147 56.4232 11.6 56.0499 11.376C55.6872 11.152 55.2819 11.04 54.8339 11.04C54.3859 11.04 53.9752 11.152 53.6019 11.376C53.2392 11.6 52.9459 11.9147 52.7219 12.32C52.5085 12.7147 52.4019 13.184 52.4019 13.728C52.4019 14.2613 52.5085 14.7307 52.7219 15.136C52.9459 15.5307 53.2392 15.84 53.6019 16.064C53.9752 16.288 54.3859 16.4 54.8339 16.4C55.2819 16.4 55.6872 16.288 56.0499 16.064C56.4232 15.84 56.7165 15.5307 56.9299 15.136C57.1539 14.7307 57.2659 14.2613 57.2659 13.728ZM62.87 17.024C62.87 17.3013 62.774 17.536 62.582 17.728C62.4007 17.9093 62.1713 18 61.894 18C61.6273 18 61.4033 17.9093 61.222 17.728C61.0407 17.536 60.95 17.3013 60.95 17.024V7.136C60.95 6.85867 61.0407 6.62933 61.222 6.448C61.414 6.256 61.6487 6.16 61.926 6.16C62.2033 6.16 62.4273 6.256 62.598 6.448C62.7793 6.62933 62.87 6.85867 62.87 7.136V17.024ZM73.1703 13.728C73.1703 14.6027 72.9729 15.376 72.5783 16.048C72.1943 16.7093 71.6716 17.2267 71.0103 17.6C70.3596 17.9733 69.6289 18.16 68.8183 18.16C68.0076 18.16 67.2716 17.9733 66.6103 17.6C65.9596 17.2267 65.4369 16.7093 65.0423 16.048C64.6583 15.376 64.4663 14.6027 64.4663 13.728C64.4663 12.8533 64.6583 12.0853 65.0423 11.424C65.4369 10.752 65.9596 10.2293 66.6103 9.856C67.2716 9.472 68.0076 9.28 68.8183 9.28C69.6289 9.28 70.3596 9.472 71.0103 9.856C71.6716 10.2293 72.1943 10.752 72.5783 11.424C72.9729 12.0853 73.1703 12.8533 73.1703 13.728ZM71.2503 13.728C71.2503 13.184 71.1383 12.7147 70.9143 12.32C70.7009 11.9147 70.4076 11.6 70.0343 11.376C69.6716 11.152 69.2663 11.04 68.8183 11.04C68.3703 11.04 67.9596 11.152 67.5863 11.376C67.2236 11.6 66.9303 11.9147 66.7063 12.32C66.4929 12.7147 66.3863 13.184 66.3863 13.728C66.3863 14.2613 66.4929 14.7307 66.7063 15.136C66.9303 15.5307 67.2236 15.84 67.5863 16.064C67.9596 16.288 68.3703 16.4 68.8183 16.4C69.2663 16.4 69.6716 16.288 70.0343 16.064C70.4076 15.84 70.7009 15.5307 70.9143 15.136C71.1383 14.7307 71.2503 14.2613 71.2503 13.728ZM81.7024 6.16C81.9797 6.16 82.209 6.25067 82.3904 6.432C82.5717 6.61333 82.6624 6.848 82.6624 7.136V17.024C82.6624 17.3013 82.5717 17.536 82.3904 17.728C82.209 17.9093 81.9797 18 81.7024 18C81.425 18 81.1957 17.9093 81.0144 17.728C80.833 17.536 80.7424 17.3013 80.7424 17.024V16.24L81.0944 16.384C81.0944 16.5227 81.0197 16.6933 80.8704 16.896C80.721 17.088 80.5184 17.28 80.2624 17.472C80.0064 17.664 79.7024 17.8293 79.3504 17.968C79.009 18.096 78.6357 18.16 78.2304 18.16C77.4944 18.16 76.8277 17.9733 76.2304 17.6C75.633 17.216 75.1584 16.6933 74.8064 16.032C74.465 15.36 74.2944 14.592 74.2944 13.728C74.2944 12.8533 74.465 12.0853 74.8064 11.424C75.1584 10.752 75.6277 10.2293 76.2144 9.856C76.801 9.472 77.4517 9.28 78.1664 9.28C78.625 9.28 79.0464 9.34933 79.4304 9.488C79.8144 9.62667 80.145 9.80267 80.4224 10.016C80.7104 10.2293 80.929 10.448 81.0784 10.672C81.2384 10.8853 81.3184 11.0667 81.3184 11.216L80.7424 11.424V7.136C80.7424 6.85867 80.833 6.62933 81.0144 6.448C81.1957 6.256 81.425 6.16 81.7024 6.16ZM78.4704 16.4C78.9397 16.4 79.3504 16.2827 79.7024 16.048C80.0544 15.8133 80.3264 15.4933 80.5184 15.088C80.721 14.6827 80.8224 14.2293 80.8224 13.728C80.8224 13.216 80.721 12.7573 80.5184 12.352C80.3264 11.9467 80.0544 11.6267 79.7024 11.392C79.3504 11.1573 78.9397 11.04 78.4704 11.04C78.0117 11.04 77.6064 11.1573 77.2544 11.392C76.9024 11.6267 76.625 11.9467 76.4224 12.352C76.2304 12.7573 76.1344 13.216 76.1344 13.728C76.1344 14.2293 76.2304 14.6827 76.4224 15.088C76.625 15.4933 76.9024 15.8133 77.2544 16.048C77.6064 16.2827 78.0117 16.4 78.4704 16.4ZM92.9671 13.728C92.9671 14.6027 92.7698 15.376 92.3751 16.048C91.9911 16.7093 91.4685 17.2267 90.8071 17.6C90.1565 17.9733 89.4258 18.16 88.6151 18.16C87.8045 18.16 87.0685 17.9733 86.4071 17.6C85.7565 17.2267 85.2338 16.7093 84.8391 16.048C84.4551 15.376 84.2631 14.6027 84.2631 13.728C84.2631 12.8533 84.4551 12.0853 84.8391 11.424C85.2338 10.752 85.7565 10.2293 86.4071 9.856C87.0685 9.472 87.8045 9.28 88.6151 9.28C89.4258 9.28 90.1565 9.472 90.8071 9.856C91.4685 10.2293 91.9911 10.752 92.3751 11.424C92.7698 12.0853 92.9671 12.8533 92.9671 13.728ZM91.0471 13.728C91.0471 13.184 90.9351 12.7147 90.7111 12.32C90.4978 11.9147 90.2045 11.6 89.8311 11.376C89.4685 11.152 89.0631 11.04 88.6151 11.04C88.1671 11.04 87.7565 11.152 87.3831 11.376C87.0205 11.6 86.7271 11.9147 86.5031 12.32C86.2898 12.7147 86.1831 13.184 86.1831 13.728C86.1831 14.2613 86.2898 14.7307 86.5031 15.136C86.7271 15.5307 87.0205 15.84 87.3831 16.064C87.7565 16.288 88.1671 16.4 88.6151 16.4C89.0631 16.4 89.4685 16.288 89.8311 16.064C90.2045 15.84 90.4978 15.5307 90.7111 15.136C90.9351 14.7307 91.0471 14.2613 91.0471 13.728ZM94.0753 16.672C93.9686 16.5227 93.9206 16.3307 93.9313 16.096C93.9419 15.8613 94.0806 15.6587 94.3473 15.488C94.5179 15.3813 94.6993 15.3387 94.8913 15.36C95.0833 15.3707 95.2699 15.4667 95.4513 15.648C95.7606 15.9573 96.0859 16.1973 96.4273 16.368C96.7686 16.5387 97.1953 16.624 97.7073 16.624C97.8673 16.6133 98.0433 16.592 98.2352 16.56C98.4273 16.5173 98.5926 16.432 98.7313 16.304C98.8806 16.1653 98.9553 15.9573 98.9553 15.68C98.9553 15.4453 98.8753 15.2587 98.7153 15.12C98.5553 14.9813 98.3419 14.864 98.0753 14.768C97.8193 14.672 97.5313 14.5813 97.2113 14.496C96.8806 14.4 96.5393 14.2933 96.1873 14.176C95.8459 14.0587 95.5313 13.9093 95.2433 13.728C94.9553 13.536 94.7206 13.2853 94.5393 12.976C94.3579 12.6667 94.2673 12.2773 94.2673 11.808C94.2673 11.2747 94.4166 10.8213 94.7153 10.448C95.0139 10.0747 95.3979 9.78667 95.8673 9.584C96.3473 9.38133 96.8486 9.28 97.3713 9.28C97.7019 9.28 98.0486 9.32267 98.4113 9.408C98.7739 9.48267 99.1206 9.61067 99.4513 9.792C99.7819 9.96267 100.059 10.192 100.283 10.48C100.401 10.64 100.47 10.832 100.491 11.056C100.513 11.28 100.411 11.4827 100.187 11.664C100.027 11.792 99.8406 11.8507 99.6273 11.84C99.4139 11.8187 99.2379 11.744 99.0993 11.616C98.9179 11.3813 98.6726 11.1947 98.3633 11.056C98.0646 10.9173 97.7179 10.848 97.3233 10.848C97.1633 10.848 96.9873 10.8693 96.7953 10.912C96.6139 10.944 96.4539 11.024 96.3153 11.152C96.1766 11.2693 96.1073 11.4613 96.1073 11.728C96.1073 11.9733 96.1873 12.1707 96.3473 12.32C96.5073 12.4587 96.7206 12.576 96.9873 12.672C97.2646 12.7573 97.5579 12.8427 97.8673 12.928C98.1873 13.0133 98.5126 13.1147 98.8433 13.232C99.1739 13.3493 99.4779 13.504 99.7553 13.696C100.033 13.888 100.257 14.1387 100.427 14.448C100.598 14.7467 100.683 15.1307 100.683 15.6C100.683 16.144 100.523 16.608 100.203 16.992C99.8833 17.376 99.4833 17.6693 99.0033 17.872C98.5233 18.064 98.0326 18.16 97.5312 18.16C96.9019 18.16 96.2726 18.0533 95.6432 17.84C95.0139 17.616 94.4913 17.2267 94.0753 16.672Z" fill="black"/>
</svg>
