<svg width="20" height="20" viewBox="0 0 20 20" fill="none" xmlns="http://www.w3.org/2000/svg">
<g clip-path="url(#clip0_42_6295)">
<path d="M11.525 15.8333C11.4005 15.8338 11.2775 15.8063 11.165 15.7529C11.0525 15.6996 10.9534 15.6217 10.875 15.525L6.85 10.525C6.72743 10.3759 6.66043 10.1889 6.66043 9.99583C6.66043 9.80281 6.72743 9.61577 6.85 9.46666L11.0167 4.46666C11.1581 4.29648 11.3614 4.18946 11.5817 4.16915C11.8021 4.14883 12.0215 4.21688 12.1917 4.35833C12.3618 4.49978 12.4689 4.70304 12.4892 4.92339C12.5095 5.14375 12.4414 5.36315 12.3 5.53333L8.575 10L12.175 14.4667C12.2769 14.589 12.3416 14.7379 12.3615 14.8959C12.3814 15.0538 12.3557 15.2142 12.2873 15.358C12.2189 15.5017 12.1108 15.6229 11.9757 15.7072C11.8406 15.7914 11.6842 15.8352 11.525 15.8333Z" fill="black"/>
</g>
<defs>
<clipPath id="clip0_42_6295">
<rect width="20" height="20" fill="white"/>
</clipPath>
</defs>
</svg>
