<svg width="24" height="24" viewBox="0 0 24 24" fill="none" xmlns="http://www.w3.org/2000/svg">
<path fill-rule="evenodd" clip-rule="evenodd" d="M8.40625 1.25C6.85295 1.25 5.59375 2.5092 5.59375 4.0625V18.125C5.59375 19.6783 6.85295 20.9375 8.40625 20.9375H16.8438C18.3971 20.9375 19.6562 19.6783 19.6562 18.125V4.0625C19.6562 2.5092 18.3971 1.25 16.8438 1.25H8.40625ZM7 4.0625C7 3.28585 7.6296 2.65625 8.40625 2.65625H16.8438C17.6204 2.65625 18.25 3.28585 18.25 4.0625V8H7V4.0625ZM7 9.6875H18.25V18.125C18.25 18.9016 17.6204 19.5312 16.8438 19.5312H8.40625C7.6296 19.5312 7 18.9016 7 18.125V9.6875ZM8.40625 4.625C8.25092 4.625 8.125 4.75092 8.125 4.90625V6.03125C8.125 6.18658 8.25092 6.3125 8.40625 6.3125H9.25C9.40533 6.3125 9.53125 6.18658 9.53125 6.03125V4.90625C9.53125 4.75092 9.40533 4.625 9.25 4.625H8.40625ZM8.125 10.5312C8.125 10.3759 8.25092 10.25 8.40625 10.25H9.25C9.40533 10.25 9.53125 10.3759 9.53125 10.5312V14.75C9.53125 14.9053 9.40533 15.0312 9.25 15.0312H8.40625C8.25092 15.0312 8.125 14.9053 8.125 14.75V10.5312Z" fill="black"/>
</svg>
